# xmcd
# 
# Track frame offsets:
#     150
#     18138
#     37825
#     52619
#     68488
#     90899
#     111254
#     132574
#     146657
#     168417
# 
# Disc length: 2485
# 
# Revision: 3
# Processed by: cddbd v1.5.2PL0 Copyright (c) Steve Scherf et al.
# Submitted via: fre:ac v1.0.31
# 
DISCID=7209b30a
DTITLE=Dolly Parton and Emmylou Harris and Linda Ronstadt - The Complete Trio Collection Disc 2
DYEAR=1999
DGENRE=Country
TTITLE0=Lover's Return
TTITLE1=High Sierra
TTITLE2=Do I Ever Cross Your Mind
TTITLE3=After The Gold Rush
TTITLE4=The Blue Train
TTITLE5=I Feel The Blues Movin' In
TTITLE6=You'll Never Be The Sun
TTITLE7=He Rode All The Way To Texas
TTITLE8=Feels Like Home
TTITLE9=When We're Gone Long Gone
EXTD=
EXTT0=
EXTT1=
EXTT2=
EXTT3=
EXTT4=
EXTT5=
EXTT6=
EXTT7=
EXTT8=
EXTT9=
PLAYORDER=
